<?xml version="1.0" encoding="UTF-8" standalone="no"?><!DOCTYPE svg PUBLIC "-//W3C//DTD SVG 1.1//EN" "http://www.w3.org/Graphics/SVG/1.1/DTD/svg11.dtd"><svg width="100%" height="100%" viewBox="0 0 3013 3846" version="1.1" xmlns="http://www.w3.org/2000/svg" xmlns:xlink="http://www.w3.org/1999/xlink" xml:space="preserve" xmlns:serif="http://www.serif.com/" style="fill-rule:evenodd;clip-rule:evenodd;stroke-linejoin:round;stroke-miterlimit:2;"><g><path d="M2956.17,3834.62c-11.55,8.067 -135.675,9.167 -1024.91,9.167c-84.095,-0 -161.287,-0 -232.241,0.058c-741.821,0.183 -796.217,0.183 -810.946,-23.954c-2.567,-4.217 -3.908,-9.171 -7.517,-15.038c-11.979,-19.371 -12.712,-29.212 -12.712,-173.2l-0,-152.666l25.241,-39.117c13.875,-21.571 26.892,-40.517 29.03,-42.229c2.079,-1.713 15.77,-20.475 30.375,-41.804c23.958,-34.896 26.158,-41.25 22.795,-64.171c-8.983,-60.809 -10.816,-152.238 -3.666,-180.046c13.016,-50.3 47.975,-125.042 69.246,-147.963c7.762,-8.37 16.866,-20.108 20.166,-26.095c3.363,-5.93 31.171,-37.83 61.85,-70.834c62.4,-67.167 93.263,-117.525 93.384,-152.179c0.245,-47.242 34.166,-125.042 65.458,-150.038c7.637,-6.175 13.933,-16.316 13.933,-22.675c0,-10.999 -8.496,-11.612 -187.933,-13.32c-176.867,-1.65 -188.908,-2.509 -204.246,-13.996c-5.317,-3.975 -9.779,-7.029 -13.629,-10.821c-22.063,-21.512 -22.004,-65.575 -21.942,-431.171l0,-42.533c0,-248.071 2.75,-462.159 6.354,-502.496c3.488,-38.688 9.171,-103.283 12.655,-143.621c6.416,-73.704 12.404,-129.442 20.779,-193.433c3.85,-29.396 2.808,-36.3 -6.967,-46.384c-19.804,-20.412 -143.317,-118.383 -204.004,-161.712c-31.967,-22.858 -60.813,-43.7 -64.175,-46.45c-12.771,-10.267 -122.596,-84.888 -128.525,-87.333c-11.917,-4.83 -134.271,-87.7 -138.733,-93.996c-9.596,-13.384 -3.667,-16.442 24.325,-12.65c43.516,5.866 127.12,15.829 178.762,21.266c25.179,2.63 64.479,8.25 87.213,12.409c70.954,13.016 102.245,-1.775 102.245,-48.221c0,-22.063 -24.629,-55.496 -40.883,-55.496c-4.4,0 -8.008,-2.075 -8.067,-4.583c0,-2.504 -25.487,-16.684 -56.533,-31.413c-31.046,-14.791 -61.179,-29.154 -66.983,-32.025c-10.45,-5.133 -41.071,-13.504 -87.275,-23.775c-36.242,-8.066 -206.813,-7.333 -227.225,1.042c-9.475,3.787 -29.584,8.983 -44.738,11.487c-29.337,4.892 -89.658,26.342 -134.087,47.855c-14.913,7.212 -30.375,13.079 -34.409,13.079c-3.975,-0 -10.695,4.154 -14.854,9.167c-8.125,9.779 -42.779,12.833 -42.779,3.791c0,-2.996 6.171,-9.596 13.75,-14.608c7.579,-5.071 22.004,-16.563 32.088,-25.609c10.083,-9.104 41.741,-36.116 70.283,-60.075c28.542,-23.958 53.354,-45.287 55.004,-47.424c2.75,-3.546 57.692,-40.217 88.617,-59.163c13.875,-8.554 68.937,-34.958 100.841,-48.404c11.734,-4.95 29.15,-12.954 38.688,-17.784c9.533,-4.829 24.812,-8.8 33.917,-8.8c9.166,0 19.558,-2.933 23.104,-6.479c6.904,-6.904 54.025,-17.725 148.141,-33.921c48.955,-8.433 85.442,-9.533 220.08,-6.475l161.408,3.725l20.412,-21.633c16.438,-17.479 20.413,-26.646 20.413,-47.304c-0,-34.713 -21.696,-65.7 -55.921,-79.879c-14.608,-5.988 -35.633,-14.788 -46.633,-19.496c-11.063,-4.704 -27.684,-8.554 -36.975,-8.554c-17.663,-0 -31.596,-9.596 -31.596,-21.759c-0,-8.004 45.654,-27.133 64.721,-27.133c6.846,0 17.725,-4.033 24.262,-8.987c17.359,-13.138 234.5,-13.259 271.6,-0.184c14.3,5.013 33.734,9.171 43.267,9.171c9.475,0 23.592,2.567 31.292,5.683c7.762,3.175 30.558,10.205 50.729,15.705c20.166,5.562 50.054,13.995 66.371,18.762c48.279,14.179 75.295,11.613 96.075,-9.104c20.166,-20.171 24.016,-51.092 8.858,-71.138c-4.95,-6.541 -9.042,-16.87 -9.167,-22.983c-0.121,-8.675 2.813,-10.204 13.567,-7.025c13.446,3.908 111.783,51.763 135.983,66.125c18.275,10.817 85.134,55.433 88.621,59.1c9.35,9.779 37.829,24.325 47.729,24.325c6.296,0 16.746,-5.808 23.163,-12.896c38.871,-43.15 200.887,-146.008 229.916,-146.008c4.646,-0 11.188,-2.75 14.488,-6.05c10.754,-10.754 110.25,-29.454 160.121,-30.192c29.275,-0.366 34.654,1.775 57.329,22.921c23.221,21.633 25.116,25.792 25.483,56.533c0.367,30.25 -7.883,63.496 -30.192,121.8c-4.462,11.796 -9.9,31.475 -12.037,43.821c-3.488,20.538 -2.2,23.288 14.787,32.088c10.267,5.316 21.821,9.654 25.671,9.654c7.392,-0 40.092,13.204 68.938,27.871c9.533,4.829 19.925,8.8 23.162,8.8c11.246,-0 70.954,48.1 90.696,73.033c10.879,13.75 38.929,63.5 62.338,110.558c47.058,94.667 67.9,120.034 148.633,180.78c47.367,35.633 60.813,46.02 137.633,106.341c21.88,17.175 58.975,45.838 82.505,63.621c89.475,67.842 97.787,85.258 97.787,205.167c0,83.546 -6.662,135.129 -23.104,179.558c-8.308,22.429 -55.796,87.213 -80.304,109.579c-34.896,31.904 -80.979,65.334 -89.963,65.334c-4.887,-0 -11.55,2.508 -14.729,5.562c-17.542,16.867 -124.983,17.358 -164.708,0.796c-6.721,-2.813 -21.879,-8.558 -33.613,-12.775c-32.45,-11.612 -132.071,-53.475 -160.487,-66.921c-28.421,-13.446 -55.679,-24.446 -60.509,-24.446c-4.825,0 -11.791,-2.996 -15.458,-6.662c-4.342,-4.338 -20.6,-5.317 -45.533,-2.871c-91.246,8.983 -141.363,10.325 -147.779,3.908c-3.667,-3.666 -11.43,-6.6 -17.417,-6.6c-9.779,0 -40.275,-11.366 -67.654,-25.179c-20.659,-10.45 -23.529,-6.417 -19.313,26.708c8.496,67.167 52.988,134.942 150.467,229.55c60.504,58.671 74.746,71.446 154.804,138.613c35.571,29.883 127.796,116.483 175.708,165.071c32.146,32.575 85.317,99.191 113.617,142.279c36.242,55.188 92.346,173.875 92.346,195.263c-0,6.541 2.017,13.875 4.458,16.32c15.221,15.217 35.388,186.767 28.85,245.805c-6.421,58.183 -51.646,81.529 -158.596,81.775c-33.616,0.12 -64.725,2.445 -69.125,5.254c-6.05,3.85 -1.525,12.712 18.338,36.12c38.929,45.776 66.066,110.559 66.066,157.738c0,33.004 30.313,79.758 98.7,152.304c111.109,117.829 149.246,198.809 148.267,314.746c-0.304,35.325 -2.566,77.921 -5.071,94.729c-4.341,29.763 -3.608,31.842 28.05,78.9c17.909,26.646 42.842,63.742 55.371,82.504l22.796,34.167l0.125,152.054c0.121,143.5 -0.613,153.217 -12.592,172.65c-7.029,11.371 -18.641,24.754 -25.791,29.767Z" style="fill:#ffd411;fill-rule:nonzero;"/><g><clipPath id="_clip1"><path d="M2956.17,3834.62c-11.55,8.067 -135.675,9.167 -1024.91,9.167c-84.095,-0 -161.287,-0 -232.241,0.058c-741.821,0.183 -796.217,0.183 -810.946,-23.954c-2.567,-4.217 -3.908,-9.171 -7.517,-15.038c-11.979,-19.371 -12.712,-29.212 -12.712,-173.2l-0,-152.666l25.241,-39.117c13.875,-21.571 26.892,-40.517 29.03,-42.229c2.079,-1.713 15.77,-20.475 30.375,-41.804c23.958,-34.896 26.158,-41.25 22.795,-64.171c-8.983,-60.809 -10.816,-152.238 -3.666,-180.046c13.016,-50.3 47.975,-125.042 69.246,-147.963c7.762,-8.37 16.866,-20.108 20.166,-26.095c3.363,-5.93 31.171,-37.83 61.85,-70.834c62.4,-67.167 93.263,-117.525 93.384,-152.179c0.245,-47.242 34.166,-125.042 65.458,-150.038c7.637,-6.175 13.933,-16.316 13.933,-22.675c0,-10.999 -8.496,-11.612 -187.933,-13.32c-176.867,-1.65 -188.908,-2.509 -204.246,-13.996c-5.317,-3.975 -9.779,-7.029 -13.629,-10.821c-22.063,-21.512 -22.004,-65.575 -21.942,-431.171l0,-42.533c0,-248.071 2.75,-462.159 6.354,-502.496c3.488,-38.688 9.171,-103.283 12.655,-143.621c6.416,-73.704 12.404,-129.442 20.779,-193.433c3.85,-29.396 2.808,-36.3 -6.967,-46.384c-19.804,-20.412 -143.317,-118.383 -204.004,-161.712c-31.967,-22.858 -60.813,-43.7 -64.175,-46.45c-12.771,-10.267 -122.596,-84.888 -128.525,-87.333c-11.917,-4.83 -134.271,-87.7 -138.733,-93.996c-9.596,-13.384 -3.667,-16.442 24.325,-12.65c43.516,5.866 127.12,15.829 178.762,21.266c25.179,2.63 64.479,8.25 87.213,12.409c70.954,13.016 102.245,-1.775 102.245,-48.221c0,-22.063 -24.629,-55.496 -40.883,-55.496c-4.4,0 -8.008,-2.075 -8.067,-4.583c0,-2.504 -25.487,-16.684 -56.533,-31.413c-31.046,-14.791 -61.179,-29.154 -66.983,-32.025c-10.45,-5.133 -41.071,-13.504 -87.275,-23.775c-36.242,-8.066 -206.813,-7.333 -227.225,1.042c-9.475,3.787 -29.584,8.983 -44.738,11.487c-29.337,4.892 -89.658,26.342 -134.087,47.855c-14.913,7.212 -30.375,13.079 -34.409,13.079c-3.975,-0 -10.695,4.154 -14.854,9.167c-8.125,9.779 -42.779,12.833 -42.779,3.791c0,-2.996 6.171,-9.596 13.75,-14.608c7.579,-5.071 22.004,-16.563 32.088,-25.609c10.083,-9.104 41.741,-36.116 70.283,-60.075c28.542,-23.958 53.354,-45.287 55.004,-47.424c2.75,-3.546 57.692,-40.217 88.617,-59.163c13.875,-8.554 68.937,-34.958 100.841,-48.404c11.734,-4.95 29.15,-12.954 38.688,-17.784c9.533,-4.829 24.812,-8.8 33.917,-8.8c9.166,0 19.558,-2.933 23.104,-6.479c6.904,-6.904 54.025,-17.725 148.141,-33.921c48.955,-8.433 85.442,-9.533 220.08,-6.475l161.408,3.725l20.412,-21.633c16.438,-17.479 20.413,-26.646 20.413,-47.304c-0,-34.713 -21.696,-65.7 -55.921,-79.879c-14.608,-5.988 -35.633,-14.788 -46.633,-19.496c-11.063,-4.704 -27.684,-8.554 -36.975,-8.554c-17.663,-0 -31.596,-9.596 -31.596,-21.759c-0,-8.004 45.654,-27.133 64.721,-27.133c6.846,0 17.725,-4.033 24.262,-8.987c17.359,-13.138 234.5,-13.259 271.6,-0.184c14.3,5.013 33.734,9.171 43.267,9.171c9.475,0 23.592,2.567 31.292,5.683c7.762,3.175 30.558,10.205 50.729,15.705c20.166,5.562 50.054,13.995 66.371,18.762c48.279,14.179 75.295,11.613 96.075,-9.104c20.166,-20.171 24.016,-51.092 8.858,-71.138c-4.95,-6.541 -9.042,-16.87 -9.167,-22.983c-0.121,-8.675 2.813,-10.204 13.567,-7.025c13.446,3.908 111.783,51.763 135.983,66.125c18.275,10.817 85.134,55.433 88.621,59.1c9.35,9.779 37.829,24.325 47.729,24.325c6.296,0 16.746,-5.808 23.163,-12.896c38.871,-43.15 200.887,-146.008 229.916,-146.008c4.646,-0 11.188,-2.75 14.488,-6.05c10.754,-10.754 110.25,-29.454 160.121,-30.192c29.275,-0.366 34.654,1.775 57.329,22.921c23.221,21.633 25.116,25.792 25.483,56.533c0.367,30.25 -7.883,63.496 -30.192,121.8c-4.462,11.796 -9.9,31.475 -12.037,43.821c-3.488,20.538 -2.2,23.288 14.787,32.088c10.267,5.316 21.821,9.654 25.671,9.654c7.392,-0 40.092,13.204 68.938,27.871c9.533,4.829 19.925,8.8 23.162,8.8c11.246,-0 70.954,48.1 90.696,73.033c10.879,13.75 38.929,63.5 62.338,110.558c47.058,94.667 67.9,120.034 148.633,180.78c47.367,35.633 60.813,46.02 137.633,106.341c21.88,17.175 58.975,45.838 82.505,63.621c89.475,67.842 97.787,85.258 97.787,205.167c0,83.546 -6.662,135.129 -23.104,179.558c-8.308,22.429 -55.796,87.213 -80.304,109.579c-34.896,31.904 -80.979,65.334 -89.963,65.334c-4.887,-0 -11.55,2.508 -14.729,5.562c-17.542,16.867 -124.983,17.358 -164.708,0.796c-6.721,-2.813 -21.879,-8.558 -33.613,-12.775c-32.45,-11.612 -132.071,-53.475 -160.487,-66.921c-28.421,-13.446 -55.679,-24.446 -60.509,-24.446c-4.825,0 -11.791,-2.996 -15.458,-6.662c-4.342,-4.338 -20.6,-5.317 -45.533,-2.871c-91.246,8.983 -141.363,10.325 -147.779,3.908c-3.667,-3.666 -11.43,-6.6 -17.417,-6.6c-9.779,0 -40.275,-11.366 -67.654,-25.179c-20.659,-10.45 -23.529,-6.417 -19.313,26.708c8.496,67.167 52.988,134.942 150.467,229.55c60.504,58.671 74.746,71.446 154.804,138.613c35.571,29.883 127.796,116.483 175.708,165.071c32.146,32.575 85.317,99.191 113.617,142.279c36.242,55.188 92.346,173.875 92.346,195.263c-0,6.541 2.017,13.875 4.458,16.32c15.221,15.217 35.388,186.767 28.85,245.805c-6.421,58.183 -51.646,81.529 -158.596,81.775c-33.616,0.12 -64.725,2.445 -69.125,5.254c-6.05,3.85 -1.525,12.712 18.338,36.12c38.929,45.776 66.066,110.559 66.066,157.738c0,33.004 30.313,79.758 98.7,152.304c111.109,117.829 149.246,198.809 148.267,314.746c-0.304,35.325 -2.566,77.921 -5.071,94.729c-4.341,29.763 -3.608,31.842 28.05,78.9c17.909,26.646 42.842,63.742 55.371,82.504l22.796,34.167l0.125,152.054c0.121,143.5 -0.613,153.217 -12.592,172.65c-7.029,11.371 -18.641,24.754 -25.791,29.767Z"/></clipPath><g clip-path="url(#_clip1)"><path d="M911.079,1163.18c-7.296,13.521 38.313,-212.258 74.483,-306.183c47.738,-120.358 116.559,-238.958 200.642,-356.279c95.617,-120.213 236.992,-202.021 409.108,-258.038l186.213,-37.591l19.517,-13.029l-590.354,-469.93l-941.071,366.759l-569.834,609.375l1211.3,464.916Z" style="fill:#ffd411;"/></g></g></g></svg>